<?xml version="1.0" standalone="no"?>
<!DOCTYPE svg PUBLIC "-//W3C//DTD SVG 20010904//EN"
 "http://www.w3.org/TR/2001/REC-SVG-20010904/DTD/svg10.dtd">
<svg version="1.0" xmlns="http://www.w3.org/2000/svg"
 width="500.000000pt" height="500.000000pt" viewBox="0 0 500.000000 500.000000"
 preserveAspectRatio="xMidYMid meet">

<g transform="translate(0.000000,500.000000) scale(0.100000,-0.100000)"
fill="#b9b9b9" stroke="none">
<path d="M455 4626 c-96 -44 -273 -156 -300 -188 -45 -53 -57 -94 -53 -173 l4
-70 196 -340 c108 -187 232 -402 276 -477 l81 -138 -233 0 c-230 0 -233 0
-284 -26 -64 -32 -108 -83 -127 -148 -18 -59 -20 -299 -4 -375 20 -94 103
-172 200 -189 l44 -7 38 -140 c20 -77 96 -349 168 -605 72 -256 180 -645 240
-865 61 -220 121 -423 135 -452 30 -63 88 -117 163 -152 l56 -26 1445 0 1445
0 56 26 c75 35 133 89 163 152 14 29 64 194 111 367 47 173 155 563 240 865
85 303 171 613 192 689 l38 140 54 12 c72 16 128 58 165 124 31 54 31 57 34
217 4 186 -7 243 -59 307 -18 21 -55 49 -83 62 -50 23 -58 24 -335 24 -225 0
-281 3 -273 13 5 6 61 102 125 212 63 110 180 313 259 450 79 138 150 265 156
284 27 78 4 190 -51 249 -24 26 -213 142 -292 178 -92 44 -218 22 -282 -49
-11 -12 -90 -143 -176 -292 -85 -148 -246 -427 -357 -620 -111 -192 -212 -367
-223 -387 l-22 -38 -936 0 -936 0 -58 103 c-31 56 -150 262 -263 457 -113 195
-254 441 -315 545 -135 235 -144 247 -209 279 -68 34 -143 35 -213 2z m266
-496 c84 -146 233 -404 331 -575 l178 -310 -147 -3 c-88 -1 -149 1 -151 7 -2
5 -62 110 -134 233 -270 462 -461 802 -452 805 5 2 54 30 109 62 55 33 103 56
107 53 3 -4 75 -126 159 -272z m3759 200 c41 -24 77 -44 79 -46 2 -2 -66 -123
-151 -271 -85 -147 -219 -381 -299 -520 l-144 -252 -147 -1 c-82 0 -148 2
-148 3 0 4 302 531 480 837 62 107 131 226 152 263 l39 68 32 -19 c18 -11 66
-39 107 -62z m272 -1452 c3 -68 3 -126 1 -130 -2 -5 -1016 -8 -2254 -8 l-2249
0 0 69 c0 37 -3 96 -6 130 l-7 61 2255 0 2256 0 4 -122z m-252 -384 c0 -11
-104 -381 -279 -996 -93 -326 -190 -672 -216 -768 -39 -143 -53 -181 -77 -205
l-28 -30 -1400 0 -1400 0 -28 30 c-23 24 -40 67 -82 210 -28 99 -106 358 -171
576 -207 692 -319 1099 -319 1161 l0 28 2000 0 c1100 0 2000 -3 2000 -6z"/>
<path d="M1895 2216 c-127 -59 -177 -211 -110 -334 95 -174 334 -176 429 -2
48 89 37 200 -30 279 -40 47 -116 81 -184 81 -37 0 -72 -8 -105 -24z"/>
<path d="M2895 2216 c-90 -41 -137 -119 -137 -221 -1 -255 335 -337 457 -113
33 61 39 148 13 208 -39 91 -129 150 -228 150 -37 0 -72 -8 -105 -24z"/>
<path d="M2392 1360 c-139 -25 -333 -133 -445 -248 -46 -47 -60 -67 -64 -99
-6 -46 15 -95 51 -119 34 -22 103 -21 131 2 13 11 54 45 92 77 37 32 106 77
152 100 83 41 86 42 191 42 105 0 108 -1 191 -42 46 -23 115 -68 152 -100 38
-32 79 -66 92 -77 28 -23 97 -24 131 -2 37 25 57 73 51 120 -5 35 -16 51 -85
116 -188 178 -434 266 -640 230z"/>
</g>
</svg>
