<svg version="1.1" xmlns="http://www.w3.org/2000/svg" xmlns:xlink="http://www.w3.org/1999/xlink" width="512.000000pt" height="512.000000pt" viewBox="0,0,256,256"><g transform="translate(45,45) scale(0.64844,0.64844)"><g fill="#b9b9b9" fill-rule="nonzero" stroke="none" stroke-width="1" stroke-linecap="butt" stroke-linejoin="miter" stroke-miterlimit="10" stroke-dasharray="" stroke-dashoffset="0" font-family="none" font-weight="none" font-size="none" text-anchor="none" style="mix-blend-mode: normal"><g transform="translate(0.03546,0.0569) scale(0.5,0.5)"><g transform="translate(0,512) scale(0.1,-0.1)"><path d="M3655,5036c-28,-28 -28,-28 -22,-134c20,-394 314,-755 697,-858c36,-10 66,-18 68,-20c1,-1 -16,-28 -39,-61l-41,-60l-71,20c-97,27 -313,29 -407,4c-152,-40 -274,-107 -382,-206c-83,-77 -140,-155 -203,-279c-82,-161 -164,-233 -345,-303c-118,-46 -220,-96 -310,-153l-65,-41l-110,3c-172,6 -331,-30 -492,-112c-40,-20 -76,-36 -81,-36c-5,0 -7,35 -4,78c5,97 -11,202 -48,315c-17,48 -30,90 -30,93c0,2 11,4 24,4c39,0 193,48 259,81c205,103 364,263 457,461c54,117 80,216 87,338l6,105l-29,29l-29,29l-100,-6c-163,-10 -318,-61 -458,-150c-68,-44 -190,-158 -247,-232c-55,-71 -124,-207 -151,-297c-12,-40 -23,-75 -25,-76c-1,-2 -32,21 -68,52c-56,47 -72,56 -105,56c-63,0 -109,-67 -82,-119c6,-10 59,-67 118,-127c59,-60 123,-134 140,-164c45,-76 82,-186 94,-281c13,-92 4,-209 -15,-209c-7,0 -53,20 -103,44c-205,100 -340,131 -533,123c-260,-11 -483,-107 -661,-286c-117,-118 -187,-231 -248,-404c-157,-445 -128,-922 81,-1342c60,-122 279,-452 342,-518c65,-67 156,-123 250,-153c103,-33 214,-35 421,-5c214,30 356,41 546,41h167l123,-59c231,-111 392,-150 650,-158c244,-7 428,24 649,112c69,27 103,35 185,39c201,12 375,59 570,156c521,258 837,768 836,1345c0,214 -27,356 -108,568c-46,118 -47,125 -47,232c0,92 4,120 23,170c90,229 112,345 93,499c-16,124 -50,231 -108,333c-53,94 -159,213 -233,264c-28,19 -51,38 -51,42c0,17 64,100 117,153c105,103 208,144 365,144c84,0 101,3 118,20c46,46 32,122 -26,146c-72,30 -229,16 -375,-32c-12,-4 -20,12 -37,81c-70,277 -266,514 -524,635c-117,55 -216,80 -340,87c-106,6 -106,6 -133,-21zM3956,4844c197,-65 359,-203 453,-383c41,-80 81,-196 81,-237c0,-33 -29,-32 -144,7c-253,84 -441,285 -512,544c-8,28 -14,61 -14,74c0,22 3,23 43,18c24,-4 66,-14 93,-23zM2410,4113c0,-16 -15,-71 -33,-124c-90,-260 -303,-452 -569,-512l-68,-15v30c0,46 57,205 97,271c107,177 283,311 473,361c85,23 100,21 100,-11zM4205,3745c316,-83 540,-413 495,-732c-9,-70 -20,-103 -89,-288c-23,-63 -26,-83 -25,-210v-140l48,-130c83,-221 106,-339 106,-537c0,-559 -360,-1059 -894,-1244c-38,-13 -71,-24 -74,-24c-2,0 44,50 103,111c186,195 306,401 379,655c49,168 78,403 57,465c-21,65 -14,64 -458,67l-403,3l-4,22c-3,12 -7,54 -10,92c-6,96 -41,262 -77,370c-98,292 -267,495 -518,621l-63,33l58,29c33,16 107,48 165,71c198,77 307,176 409,371c76,143 131,214 218,279c163,123 381,167 577,116zM1176,2759c83,-14 177,-46 259,-87c105,-52 171,-72 260,-79c103,-7 173,10 329,83c154,73 269,98 411,91c299,-16 557,-183 690,-446c64,-129 121,-342 132,-498l6,-83l-1029,-2c-1123,-3 -1060,0 -1085,-60c-21,-52 8,-300 55,-468c67,-239 195,-465 369,-646c48,-50 87,-94 87,-96c0,-3 -55,-8 -122,-11c-68,-4 -213,-18 -323,-32c-290,-37 -347,-35 -459,22c-74,37 -131,102 -255,288c-203,304 -278,501 -312,810c-32,301 49,662 199,882c49,72 159,176 235,221c99,60 204,96 337,116c53,8 159,6 216,-5zM1468,1510c5,-69 35,-196 64,-280c64,-181 154,-325 290,-466c244,-252 557,-385 908,-385c351,0 664,133 908,385c187,193 309,437 344,686l14,95l68,3l69,3l-7,-73c-32,-316 -214,-665 -460,-880c-270,-237 -585,-357 -934,-358c-684,-1 -1271,491 -1387,1164c-8,49 -15,102 -15,118v29l68,-3l67,-3zM3810,1523c-1,-50 -38,-200 -69,-278c-129,-322 -395,-557 -737,-652c-91,-25 -114,-28 -274,-28c-160,0 -184,3 -275,28c-238,65 -447,205 -589,394c-111,148 -194,344 -212,502l-7,61h1082h1081z"></path><path d="M2514,1406c-57,-25 -69,-102 -22,-145c29,-27 81,-34 249,-29c153,3 178,10 198,55c24,52 2,104 -51,122c-46,16 -335,13 -374,-3z"></path></g></g></g></g></svg>